<svg xmlns="http://www.w3.org/2000/svg" id="Ebene_1" data-name="Ebene 1" viewBox="0 0 2596.35 1015.63"><defs><style>      .cls-1 {        fill: #792181;      }      .cls-1, .cls-2, .cls-3, .cls-4, .cls-5, .cls-6, .cls-7, .cls-8, .cls-9, .cls-10, .cls-11, .cls-12, .cls-13 {        stroke-width: 0px;      }      .cls-2 {        fill: #ac2221;      }      .cls-3 {        fill: #00763c;      }      .cls-4 {        fill: #8aacdb;      }      .cls-5 {        fill: #1d1d1b;      }      .cls-6 {        fill: #ffec00;      }      .cls-7 {        fill: #e50060;      }      .cls-8 {        fill: #e20613;      }      .cls-9 {        fill: #ed7203;      }      .cls-10 {        fill: #0069b3;      }      .cls-11 {        fill: #312782;      }      .cls-12 {        fill: #93c01f;      }      .cls-13 {        fill: #f8af00;      }    </style></defs><path class="cls-13" d="M350.43,326.52c4.01-7.74,6.31-16.51,6.31-25.83,0-31.12-25.23-56.35-56.35-56.35s-56.35,25.23-56.35,56.35,25.23,56.35,56.35,56.35c18.24,0,34.4-8.7,44.7-22.13l391.34,225.91c1.29-3.09,2.83-6.03,4.62-8.82l-390.61-225.48Z"></path><path class="cls-1" d="M525.9,788.72c0,31.12,25.23,56.35,56.35,56.35s56.35-25.23,56.35-56.35-25.23-56.35-56.35-56.35c-9.36,0-18.17,2.32-25.93,6.36l-225.54-390.64c-2.78,1.79-5.75,3.29-8.83,4.58l225.99,391.43c-13.38,10.3-22.04,26.43-22.04,44.63"></path><path class="cls-8" d="M844.69,582.45c0-31.12-25.23-56.35-56.35-56.35s-54.48,23.48-56.19,53.06h-451.07c.07,1.17.19,2.32.19,3.5,0,2.18-.15,4.33-.4,6.45h451.54c3.3,27.97,27.06,49.69,55.93,49.69,31.12,0,56.35-25.23,56.35-56.35"></path><path class="cls-6" d="M662.16,324.9l-390.95,225.68c-10.17-14.66-27.1-24.27-46.29-24.27-31.12,0-56.35,25.23-56.35,56.35s25.23,56.35,56.35,56.35,56.35-25.23,56.35-56.35c0-8.37-1.88-16.29-5.15-23.43l391.09-225.77c-1.93-2.69-3.61-5.55-5.05-8.56"></path><path class="cls-4" d="M732.25,427.95h-451.15c-1.81-29.48-26.23-52.85-56.18-52.85s-56.35,25.23-56.35,56.35,25.23,56.35,56.35,56.35c28.94,0,52.76-21.82,55.96-49.9h451.57c-.25-2.12-.38-4.27-.38-6.45,0-1.18.1-2.34.18-3.5"></path><path class="cls-9" d="M660.43,691.29c-2.42,6.28-3.8,13.09-3.8,20.23,0,31.12,25.23,56.35,56.35,56.35s56.35-25.23,56.35-56.35-25.23-56.35-56.35-56.35c-20.43,0-38.27,10.91-48.15,27.18l-389.85-225.08c-1.53,2.97-3.32,5.77-5.33,8.4l390.78,225.62Z"></path><path class="cls-7" d="M487.45,225.21c0-31.12-25.23-56.35-56.35-56.35s-56.35,25.23-56.35,56.35,25.23,56.35,56.35,56.35c7.67,0,14.98-1.55,21.65-4.33l225.27,390.23c2.59-2.07,5.37-3.9,8.31-5.49l-224.79-389.39c15.57-10.03,25.91-27.48,25.91-47.38"></path><path class="cls-10" d="M374.74,788.72c0,31.12,25.23,56.35,56.35,56.35s56.35-25.23,56.35-56.35-23.51-54.5-53.12-56.19v-451.13c-1.08.06-2.15.16-3.24.16-2.27,0-4.5-.17-6.7-.44v451.67c-27.96,3.32-49.65,27.07-49.65,55.92"></path><path class="cls-2" d="M638.6,225.21c0-31.12-25.23-56.35-56.35-56.35s-56.35,25.23-56.35,56.35c0,28.79,21.6,52.49,49.48,55.89v451.69c2.25-.28,4.55-.42,6.87-.42,1.04,0,2.04.1,3.07.16v-451.11c29.69-1.6,53.29-26.11,53.29-56.2"></path><path class="cls-3" d="M769.33,300.76c0-31.12-25.23-56.35-56.35-56.35s-56.35,25.23-56.35,56.35c0,18.77,9.22,35.36,23.33,45.6l-225.77,391.05c3.04,1.37,5.93,3.01,8.67,4.87l225.65-390.82c7.41,3.59,15.7,5.66,24.48,5.66,31.12,0,56.35-25.23,56.35-56.35"></path><path class="cls-12" d="M549.24,270.78l-225.78,391.1c-7.05-3.17-14.84-4.97-23.07-4.97-31.12,0-56.35,25.23-56.35,56.35s25.23,56.35,56.35,56.35,56.35-25.23,56.35-56.35c0-19.34-9.75-36.39-24.6-46.54l225.63-390.84c-3-1.45-5.86-3.16-8.54-5.1"></path><path class="cls-11" d="M844.77,431.46c0-31.12-25.23-56.35-56.35-56.35s-56.35,25.23-56.35,56.35c0,8.64,2,16.8,5.48,24.12l-390.8,225.71c1.88,2.72,3.46,5.64,4.85,8.67l390.99-225.81c10.22,14.3,26.92,23.66,45.84,23.66,31.12,0,56.35-25.23,56.35-56.35"></path><g><path class="cls-5" d="M2186.12,734.36c13.36,0,22.1-7.2,22.1-17.58,0-8.94-5.65-14.19-17.37-15.83l-5.45-.72c-5.04-.82-6.99-2.47-6.99-6.07,0-3.29,2.47-5.55,8.12-5.55,5.24,0,9.77,2.47,12.85,5.76l7.71-7.71c-5.14-5.35-10.49-8.43-20.97-8.43-12.23,0-20.35,6.58-20.35,16.96,0,9.77,6.37,14.8,17.89,16.24l5.35.72c4.73.62,6.58,2.57,6.58,5.65,0,3.8-2.67,6.17-8.94,6.17s-10.79-2.78-14.7-7.3l-8.02,7.81c5.35,6.17,12.03,9.87,22.21,9.87M2128.36,688.1c6.78,0,10.59,5.04,10.59,12.44v.93h-22v-.82c0-7.4,4.52-12.54,11.41-12.54M2128.56,734.36c9.97,0,17.78-3.8,22.21-9.87l-7.09-7.92c-3.29,4.21-7.2,7.3-13.67,7.3-8.64,0-13.06-5.24-13.06-12.95v-1.34h35.67v-4.32c0-14.7-7.71-27.04-24.47-27.04-15.73,0-24.88,11-24.88,27.96s9.46,28.17,25.29,28.17M2070.9,734.36c10.38,0,17.89-4.73,21.38-14.19l-10.07-4.83c-1.95,4.83-5.04,8.43-11.31,8.43-7.3,0-11-5.04-11-12.54v-9.77c0-7.5,3.7-12.64,11-12.64,5.65,0,9.05,3.29,10.28,7.81l10.79-4.83c-3.19-8.43-10.28-13.57-21.07-13.57-15.83,0-24.78,10.79-24.78,27.96s8.94,28.17,24.78,28.17M1998.26,733.13v-35.47c0-5.76,5.24-8.64,10.69-8.64,6.27,0,8.84,3.91,8.84,11.51v32.59h13.16v-33.92c0-13.36-6.17-20.97-17.17-20.97-8.33,0-12.85,4.42-15.01,10.18h-.51v-8.94h-13.16v53.66h13.16ZM1945.38,688.1c6.78,0,10.59,5.04,10.59,12.44v.93h-22v-.82c0-7.4,4.52-12.54,11.41-12.54M1945.59,734.36c9.97,0,17.78-3.8,22.21-9.87l-7.09-7.92c-3.29,4.21-7.2,7.3-13.67,7.3-8.64,0-13.06-5.24-13.06-12.95v-1.34h35.67v-4.32c0-14.7-7.71-27.04-24.47-27.04-15.73,0-24.88,11-24.88,27.96s9.46,28.17,25.29,28.17M1891.76,733.13h13.16v-53.66h-13.16v53.66ZM1898.34,671.65c5.35,0,7.71-2.78,7.71-6.58v-2.06c0-3.8-2.36-6.58-7.71-6.58s-7.71,2.78-7.71,6.58v2.06c0,3.8,2.26,6.58,7.71,6.58M1856.62,734.36c10.38,0,17.89-4.73,21.38-14.19l-10.07-4.83c-1.95,4.83-5.04,8.43-11.31,8.43-7.3,0-11-5.04-11-12.54v-9.77c0-7.5,3.7-12.64,11-12.64,5.65,0,9.05,3.29,10.28,7.81l10.79-4.83c-3.19-8.43-10.28-13.57-21.07-13.57-15.83,0-24.78,10.79-24.78,27.96s8.94,28.17,24.78,28.17M1797.26,734.36c13.36,0,22.1-7.2,22.1-17.58,0-8.94-5.65-14.19-17.37-15.83l-5.45-.72c-5.04-.82-6.99-2.47-6.99-6.07,0-3.29,2.47-5.55,8.12-5.55,5.24,0,9.77,2.47,12.85,5.76l7.71-7.71c-5.14-5.35-10.49-8.43-20.97-8.43-12.23,0-20.35,6.58-20.35,16.96,0,9.77,6.37,14.8,17.89,16.24l5.35.72c4.73.62,6.58,2.57,6.58,5.65,0,3.8-2.67,6.17-8.94,6.17s-10.79-2.78-14.7-7.3l-8.02,7.81c5.35,6.17,12.03,9.87,22.21,9.87M1707.72,705.47c-6.27,0-9.66-2.88-9.66-8.22v-1.75c0-5.45,3.39-8.22,9.66-8.22s9.66,2.78,9.66,8.22v1.75c0,5.35-3.39,8.22-9.66,8.22M1723.55,739.19c0,4.52-3.8,6.68-12.34,6.68h-6.58c-8.22,0-11.31-2.47-11.31-6.58,0-2.16.82-4.11,2.78-5.55h18.3c6.68,0,9.15,2.06,9.15,5.45M1735.89,737.65c0-9.66-5.65-15.32-18.81-15.32h-14.39c-4.73,0-6.99-1.34-6.99-4.01,0-2.36,1.75-3.91,3.8-4.83,2.36.62,5.14.93,8.22.93,14.6,0,22.21-7.2,22.21-17.99,0-6.58-2.78-11.82-8.33-14.91v-1.44h11.41v-10.07h-8.33c-4.93,0-7.61,2.57-7.61,7.81v1.75c-2.67-.93-6.07-1.34-9.35-1.34-14.5,0-22.21,7.3-22.21,18.2,0,7.09,3.29,12.64,9.77,15.63v.41c-5.14,1.13-9.87,3.91-9.87,9.46,0,4.32,2.47,7.81,6.89,8.94v1.13c-5.96.93-9.56,4.32-9.56,10.28,0,7.92,6.89,12.64,24.98,12.64,20.56,0,28.17-6.07,28.17-17.27M1636.66,733.13v-35.47c0-5.76,5.24-8.64,10.69-8.64,6.27,0,8.84,3.91,8.84,11.51v32.59h13.16v-33.92c0-13.36-6.17-20.97-17.17-20.97-8.33,0-12.85,4.42-15.01,10.18h-.51v-8.94h-13.16v53.66h13.16ZM1591.86,733.13h13.16v-53.66h-13.16v53.66ZM1598.44,671.65c5.35,0,7.71-2.78,7.71-6.58v-2.06c0-3.8-2.36-6.58-7.71-6.58s-7.71,2.78-7.71,6.58v2.06c0,3.8,2.26,6.58,7.71,6.58M1560.82,733.13v-32.9c0-5.86,4.63-8.33,13.47-8.33h4.11v-12.44h-2.88c-8.53,0-12.85,5.45-14.19,11.1h-.51v-11.1h-13.16v53.66h13.16ZM1507.94,688.1c6.78,0,10.59,5.04,10.59,12.44v.93h-22v-.82c0-7.4,4.52-12.54,11.41-12.54M1508.14,734.36c9.97,0,17.78-3.8,22.21-9.87l-7.09-7.92c-3.29,4.21-7.2,7.3-13.67,7.3-8.64,0-13.06-5.24-13.06-12.95v-1.34h35.67v-4.32c0-14.7-7.71-27.04-24.47-27.04-15.73,0-24.88,11-24.88,27.96s9.46,28.17,25.29,28.17M1445.84,688.1c6.78,0,10.59,5.04,10.59,12.44v.93h-22v-.82c0-7.4,4.52-12.54,11.41-12.54M1446.04,734.36c9.97,0,17.78-3.8,22.21-9.87l-7.09-7.92c-3.29,4.21-7.2,7.3-13.67,7.3-8.64,0-13.06-5.24-13.06-12.95v-1.34h35.67v-4.32c0-14.7-7.71-27.04-24.47-27.04-15.73,0-24.88,11-24.88,27.96s9.46,28.17,25.29,28.17M1372.89,733.13v-35.47c0-5.76,5.24-8.64,10.69-8.64,6.27,0,8.84,3.91,8.84,11.51v32.59h13.16v-33.92c0-13.36-6.17-20.97-17.17-20.97-8.33,0-12.85,4.42-15.01,10.18h-.51v-8.94h-13.16v53.66h13.16ZM1328.09,733.13h13.16v-53.66h-13.16v53.66ZM1334.67,671.65c5.35,0,7.71-2.78,7.71-6.58v-2.06c0-3.8-2.36-6.58-7.71-6.58s-7.71,2.78-7.71,6.58v2.06c0,3.8,2.26,6.58,7.71,6.58M1287.41,705.47c-6.27,0-9.66-2.88-9.66-8.22v-1.75c0-5.45,3.39-8.22,9.66-8.22s9.66,2.78,9.66,8.22v1.75c0,5.35-3.39,8.22-9.66,8.22M1303.24,739.19c0,4.52-3.8,6.68-12.34,6.68h-6.58c-8.22,0-11.31-2.47-11.31-6.58,0-2.16.82-4.11,2.78-5.55h18.3c6.68,0,9.15,2.06,9.15,5.45M1315.58,737.65c0-9.66-5.65-15.32-18.81-15.32h-14.39c-4.73,0-6.99-1.34-6.99-4.01,0-2.36,1.75-3.91,3.8-4.83,2.36.62,5.14.93,8.22.93,14.6,0,22.21-7.2,22.21-17.99,0-6.58-2.78-11.82-8.33-14.91v-1.44h11.41v-10.07h-8.33c-4.93,0-7.61,2.57-7.61,7.81v1.75c-2.67-.93-6.07-1.34-9.35-1.34-14.5,0-22.21,7.3-22.21,18.2,0,7.09,3.29,12.64,9.77,15.63v.41c-5.14,1.13-9.87,3.91-9.87,9.46,0,4.32,2.47,7.81,6.89,8.94v1.13c-5.96.93-9.56,4.32-9.56,10.28,0,7.92,6.89,12.64,24.98,12.64,20.56,0,28.17-6.07,28.17-17.27M1216.35,733.13v-35.47c0-5.76,5.24-8.64,10.69-8.64,6.27,0,8.84,3.91,8.84,11.51v32.59h13.16v-33.92c0-13.36-6.17-20.97-17.17-20.97-8.33,0-12.85,4.42-15.01,10.18h-.51v-8.94h-13.16v53.66h13.16ZM1163.47,688.1c6.78,0,10.59,5.04,10.59,12.44v.93h-22v-.82c0-7.4,4.52-12.54,11.41-12.54M1163.68,734.36c9.97,0,17.78-3.8,22.21-9.87l-7.09-7.92c-3.29,4.21-7.2,7.3-13.67,7.3-8.64,0-13.06-5.24-13.06-12.95v-1.34h35.67v-4.32c0-14.7-7.71-27.04-24.47-27.04-15.73,0-24.88,11-24.88,27.96s9.46,28.17,25.29,28.17M1058.51,733.13v-35.47c0-5.76,5.24-8.64,10.69-8.64,6.27,0,8.84,3.91,8.84,11.51v32.59h13.16v-33.92c0-13.36-6.17-20.97-17.17-20.97-8.33,0-12.85,4.42-15.01,10.18h-.51v-8.94h-13.16v53.66h13.16ZM1013.71,733.13h13.16v-53.66h-13.16v53.66ZM1020.29,671.65c5.35,0,7.71-2.78,7.71-6.58v-2.06c0-3.8-2.36-6.58-7.71-6.58s-7.71,2.78-7.71,6.58v2.06c0,3.8,2.26,6.58,7.71,6.58"></path><path class="cls-5" d="M2426.01,623.41h9.46v-10.49h-10.18v-32.69h11v-10.49h-11v-14.7h-11.82v9.15c0,3.7-1.23,5.55-5.14,5.55h-4.11v10.49h7.92v29.5c0,8.74,4.83,13.67,13.88,13.67M2358.49,623.41v-35.47c0-5.76,5.24-8.64,10.69-8.64,6.27,0,8.84,3.91,8.84,11.51v32.59h13.16v-33.92c0-13.36-6.17-20.97-17.17-20.97-8.33,0-12.85,4.42-15.01,10.18h-.51v-8.94h-13.16v53.66h13.16ZM2305.61,578.38c6.78,0,10.59,5.04,10.59,12.44v.93h-22v-.82c0-7.4,4.52-12.54,11.41-12.54M2305.81,624.64c9.97,0,17.78-3.8,22.21-9.87l-7.09-7.92c-3.29,4.21-7.2,7.3-13.67,7.3-8.64,0-13.06-5.24-13.06-12.95v-1.34h35.67v-4.32c0-14.7-7.71-27.04-24.47-27.04-15.73,0-24.88,11-24.88,27.96s9.46,28.17,25.29,28.17M2201.72,623.41v-35.47c0-5.76,4.93-8.64,9.97-8.64,5.86,0,8.64,3.8,8.64,11.51v32.59h13.16v-35.47c0-5.76,4.83-8.64,9.97-8.64,5.86,0,8.64,3.8,8.64,11.51v32.59h13.16v-33.92c0-13.36-5.96-20.97-16.45-20.97-8.53,0-14.49,4.83-16.45,10.79h-.21c-2.57-7.2-8.22-10.79-15.52-10.79-8.02,0-12.34,4.52-14.39,10.18h-.51v-8.94h-13.16v53.66h13.16ZM2148.84,578.38c6.78,0,10.59,5.04,10.59,12.44v.93h-22v-.82c0-7.4,4.52-12.54,11.41-12.54M2149.04,624.64c9.97,0,17.78-3.8,22.21-9.87l-7.09-7.92c-3.29,4.21-7.2,7.3-13.67,7.3-8.64,0-13.06-5.24-13.06-12.95v-1.34h35.67v-4.32c0-14.7-7.71-27.04-24.47-27.04-15.73,0-24.88,11-24.88,27.96s9.46,28.17,25.29,28.17M2088.1,595.75c-6.27,0-9.66-2.88-9.66-8.22v-1.75c0-5.45,3.39-8.22,9.66-8.22s9.66,2.78,9.66,8.22v1.75c0,5.35-3.39,8.22-9.66,8.22M2103.93,629.47c0,4.52-3.8,6.68-12.34,6.68h-6.58c-8.22,0-11.31-2.47-11.31-6.58,0-2.16.82-4.11,2.78-5.55h18.3c6.68,0,9.15,2.06,9.15,5.45M2116.27,627.93c0-9.66-5.65-15.32-18.81-15.32h-14.39c-4.73,0-6.99-1.34-6.99-4.01,0-2.36,1.75-3.91,3.8-4.83,2.36.62,5.14.93,8.22.93,14.6,0,22.21-7.2,22.21-17.99,0-6.58-2.78-11.82-8.33-14.91v-1.44h11.41v-10.07h-8.33c-4.93,0-7.61,2.57-7.61,7.81v1.75c-2.67-.93-6.07-1.34-9.35-1.34-14.5,0-22.21,7.3-22.21,18.2,0,7.09,3.29,12.64,9.77,15.63v.41c-5.14,1.13-9.87,3.91-9.87,9.46,0,4.32,2.47,7.81,6.89,8.94v1.13c-5.96.93-9.56,4.32-9.56,10.28,0,7.92,6.89,12.64,24.98,12.64,20.56,0,28.17-6.07,28.17-17.27M2023.59,615.08c-5.14,0-8.12-2.16-8.12-6.48v-1.75c0-4.21,3.39-6.58,10.28-6.58h8.43v7.09c0,5.04-4.73,7.71-10.59,7.71M2019.17,624.64c8.02,0,13.88-3.6,15.63-10.49h.62c.82,5.55,4.32,9.25,9.97,9.25h7.3v-10.49h-5.35v-25.29c0-12.23-7.71-19.12-22.21-19.12-10.79,0-17.07,4.11-20.97,10.28l7.81,6.99c2.57-3.7,6.07-6.78,12.23-6.78,6.99,0,9.97,3.5,9.97,9.46v3.91h-9.15c-14.6,0-22.92,5.45-22.92,16.45,0,9.56,6.17,15.83,17.07,15.83M1954.92,623.41v-35.47c0-5.76,5.24-8.64,10.69-8.64,6.27,0,8.84,3.91,8.84,11.51v32.59h13.16v-33.92c0-13.36-6.17-20.97-17.17-20.97-8.33,0-12.85,4.42-15.01,10.18h-.51v-8.94h-13.16v53.66h13.16ZM1898.02,615.08c-5.14,0-8.12-2.16-8.12-6.48v-1.75c0-4.21,3.39-6.58,10.28-6.58h8.43v7.09c0,5.04-4.73,7.71-10.59,7.71M1893.6,624.64c8.02,0,13.88-3.6,15.63-10.49h.62c.82,5.55,4.32,9.25,9.97,9.25h7.3v-10.49h-5.35v-25.29c0-12.23-7.71-19.12-22.21-19.12-10.79,0-17.07,4.11-20.97,10.28l7.81,6.99c2.57-3.7,6.07-6.78,12.23-6.78,6.99,0,9.97,3.5,9.97,9.46v3.91h-9.15c-14.6,0-22.92,5.45-22.92,16.45,0,9.56,6.17,15.83,17.07,15.83M1798.4,623.41v-35.47c0-5.76,4.93-8.64,9.97-8.64,5.86,0,8.64,3.8,8.64,11.51v32.59h13.16v-35.47c0-5.76,4.83-8.64,9.97-8.64,5.86,0,8.64,3.8,8.64,11.51v32.59h13.16v-33.92c0-13.36-5.96-20.97-16.45-20.97-8.53,0-14.5,4.83-16.45,10.79h-.21c-2.57-7.2-8.22-10.79-15.52-10.79-8.02,0-12.34,4.52-14.39,10.18h-.51v-8.94h-13.16v53.66h13.16ZM1709.27,615.08c-5.14,0-8.12-2.16-8.12-6.48v-1.75c0-4.21,3.39-6.58,10.28-6.58h8.43v7.09c0,5.04-4.73,7.71-10.59,7.71M1704.85,624.64c8.02,0,13.88-3.6,15.63-10.49h.62c.82,5.55,4.32,9.25,9.97,9.25h7.3v-10.49h-5.35v-25.29c0-12.23-7.71-19.12-22.21-19.12-10.79,0-17.07,4.11-20.97,10.28l7.81,6.99c2.57-3.7,6.07-6.78,12.23-6.78,6.99,0,9.97,3.5,9.97,9.46v3.91h-9.15c-14.6,0-22.92,5.45-22.92,16.45,0,9.56,6.17,15.83,17.07,15.83M1665.49,623.41h9.46v-10.49h-10.18v-32.69h11v-10.49h-11v-14.7h-11.82v9.15c0,3.7-1.23,5.55-5.14,5.55h-4.11v10.49h7.92v29.5c0,8.74,4.83,13.67,13.88,13.67M1606.18,615.08c-5.14,0-8.12-2.16-8.12-6.48v-1.75c0-4.21,3.39-6.58,10.28-6.58h8.43v7.09c0,5.04-4.73,7.71-10.59,7.71M1601.76,624.64c8.02,0,13.88-3.6,15.63-10.49h.62c.82,5.55,4.32,9.25,9.97,9.25h7.3v-10.49h-5.35v-25.29c0-12.23-7.71-19.12-22.21-19.12-10.79,0-17.07,4.11-20.97,10.28l7.81,6.99c2.57-3.7,6.07-6.78,12.23-6.78,6.99,0,9.97,3.5,9.97,9.46v3.91h-9.15c-14.6,0-22.92,5.45-22.92,16.45,0,9.56,6.17,15.83,17.07,15.83M1545.26,613.74c-6.78,0-11.41-4.93-11.41-12.54v-9.25c0-7.61,4.63-12.64,11.41-12.64,6.27,0,11.1,3.39,11.1,8.64v17.07c0,5.55-4.83,8.74-11.1,8.74M1556.37,623.41h13.16v-76.07h-13.16v31.25h-.51c-1.85-6.17-7.71-10.07-14.8-10.07-13.47,0-20.97,10.07-20.97,27.96s7.5,28.17,20.97,28.17c7.09,0,12.85-4.11,14.8-10.18h.51v8.94ZM1426.42,623.41h13.16v-35.47c0-5.76,5.24-8.64,10.69-8.64,6.27,0,8.84,3.91,8.84,11.51v32.59h13.16v-33.92c0-13.36-6.17-20.97-17.17-20.97-8.33,0-12.85,4.42-15.01,10.18h-.51v-31.35h-13.16v76.07ZM1391.28,624.64c10.38,0,17.89-4.73,21.38-14.19l-10.07-4.83c-1.95,4.83-5.04,8.43-11.31,8.43-7.3,0-11-5.04-11-12.54v-9.77c0-7.5,3.7-12.64,11-12.64,5.65,0,9.05,3.29,10.28,7.81l10.79-4.83c-3.19-8.43-10.28-13.57-21.07-13.57-15.83,0-24.78,10.79-24.78,27.96s8.94,28.17,24.78,28.17M1338.23,623.41v-32.9c0-5.86,4.63-8.33,13.47-8.33h4.11v-12.44h-2.88c-8.53,0-12.85,5.45-14.19,11.1h-.51v-11.1h-13.16v53.66h13.16ZM1281.33,615.08c-5.14,0-8.12-2.16-8.12-6.48v-1.75c0-4.21,3.39-6.58,10.28-6.58h8.43v7.09c0,5.04-4.73,7.71-10.59,7.71M1276.91,624.64c8.02,0,13.88-3.6,15.63-10.49h.62c.82,5.55,4.32,9.25,9.97,9.25h7.3v-10.49h-5.35v-25.29c0-12.23-7.71-19.12-22.21-19.12-10.79,0-17.07,4.11-20.97,10.28l7.81,6.99c2.57-3.7,6.07-6.78,12.23-6.78,6.99,0,9.97,3.5,9.97,9.46v3.91h-9.15c-14.6,0-22.92,5.45-22.92,16.45,0,9.56,6.17,15.83,17.07,15.83M1223.91,578.38c6.78,0,10.59,5.04,10.59,12.44v.93h-22v-.82c0-7.4,4.52-12.54,11.41-12.54M1224.11,624.64c9.97,0,17.78-3.8,22.21-9.87l-7.09-7.92c-3.29,4.21-7.2,7.3-13.67,7.3-8.64,0-13.06-5.24-13.06-12.95v-1.34h35.67v-4.32c0-14.7-7.71-27.04-24.47-27.04-15.73,0-24.88,11-24.88,27.96s9.46,28.17,25.29,28.17M1164.29,624.64c13.36,0,22.1-7.2,22.1-17.58,0-8.94-5.65-14.19-17.37-15.83l-5.45-.72c-5.04-.82-6.99-2.47-6.99-6.07,0-3.29,2.47-5.55,8.12-5.55,5.24,0,9.77,2.47,12.85,5.76l7.71-7.71c-5.14-5.35-10.49-8.43-20.97-8.43-12.23,0-20.35,6.58-20.35,16.96,0,9.77,6.37,14.8,17.89,16.24l5.35.72c4.73.62,6.58,2.57,6.58,5.65,0,3.8-2.67,6.17-8.94,6.17s-10.79-2.78-14.7-7.3l-8.02,7.81c5.35,6.17,12.03,9.87,22.21,9.87M1106.53,578.38c6.78,0,10.59,5.04,10.59,12.44v.93h-22v-.82c0-7.4,4.52-12.54,11.41-12.54M1106.74,624.64c9.97,0,17.78-3.8,22.21-9.87l-7.09-7.92c-3.29,4.21-7.2,7.3-13.67,7.3-8.64,0-13.06-5.24-13.06-12.95v-1.34h35.67v-4.32c0-14.7-7.71-27.04-24.47-27.04-15.73,0-24.88,11-24.88,27.96s9.46,28.17,25.29,28.17M1028.1,584.34v-20.87h17.48c5.24,0,8.43,2.78,8.43,8.02v4.73c0,5.24-3.19,8.12-8.43,8.12h-17.48ZM1028.1,595.75h12.85l13.36,27.65h15.11l-14.7-29.2c8.84-2.98,13.36-10.49,13.36-20.35,0-13.57-8.12-22.21-21.18-22.21h-32.38v71.76h13.57v-27.65Z"></path><path class="cls-5" d="M2384.04,463.53h41.99v-116.88h-79.28v33.21h37.29v15.98c0,9.82-2.61,17.86-7.83,24.13-5.23,6.27-13.16,9.4-23.81,9.4-13.58,0-23.03-5.33-28.36-15.98-5.33-10.65-7.99-24.86-7.99-42.62v-35.72c0-17.75,2.45-31.54,7.36-41.36,4.9-9.82,13.32-14.73,25.22-14.73,5.43,0,10.03.99,13.79,2.98,3.76,1.99,6.89,4.65,9.4,7.99,2.51,3.34,4.54,7.16,6.11,11.44,1.57,4.28,2.98,8.72,4.23,13.32l43.87-10.65c-2.3-9.4-5.43-17.96-9.4-25.7-3.97-7.72-9.04-14.36-15.2-19.9-6.16-5.53-13.53-9.82-22.09-12.85-8.57-3.02-18.49-4.54-29.77-4.54-28.41,0-49.41,9.87-62.98,29.61-13.58,19.74-20.37,48.21-20.37,85.39,0,17.34,1.41,32.9,4.23,46.69,2.82,13.79,7.05,25.49,12.69,35.1,5.64,9.61,12.58,16.92,20.84,21.93,8.25,5.01,17.7,7.52,28.36,7.52,6.68,0,12.69-.94,18.02-2.82,5.33-1.88,9.97-4.44,13.94-7.68,3.97-3.24,7.31-6.94,10.03-11.12,2.71-4.18,5.01-8.56,6.89-13.16h2.82v31.02ZM2177.24,463.53h56.4v-218.72h-40.11v145.39h-3.45l-49.82-145.39h-56.4v218.72h40.11v-145.39h3.45l49.82,145.39ZM2056.1,463.53v-34.78h-47v-149.16h47v-34.78h-141.01v34.78h47v149.16h-47v34.78h141.01ZM1818.46,293.39h2.82v91.81h-60.48l57.66-91.81ZM1866.4,463.53v-41.99h28.2v-36.35h-28.2v-140.38h-56.4l-87.11,136.62v40.11h98.39v41.99h45.12ZM1702.49,463.53v-34.78h-47v-149.16h47v-34.78h-141.01v34.78h47v149.16h-47v34.78h141.01ZM1428.69,426.56v-144.77h20.99c13.99,0,24.23,4.49,30.71,13.47,6.47,8.99,9.71,21.94,9.71,38.86v39.79c0,17.13-3.24,30.19-9.71,39.17-6.48,8.99-16.71,13.47-30.71,13.47h-20.99ZM1382.31,463.53h70.5c29.45,0,51.28-9.4,65.49-28.2,14.2-18.8,21.31-45.85,21.31-81.16s-7.1-62.36-21.31-81.16c-14.21-18.8-36.04-28.2-65.49-28.2h-70.5v218.72ZM1253.09,463.53v-91.5h87.74v-38.54h-87.74v-50.13h98.08v-38.54h-145.08v218.72h47ZM1107.39,463.53h56.4v-218.72h-40.11v145.39h-3.45l-49.82-145.39h-56.4v218.72h40.11v-145.39h3.45l49.82,145.39Z"></path></g></svg>